<?xml version="1.0" encoding="UTF-8"?>
<svg width="600" height="600" viewBox="0 0 600 480" xmlns="http://www.w3.org/2000/svg">
 <g transform="matrix(.4936 0 0 .4936 -69.66 11.646)" fill="#1a1a1a">
  <path d="m809.53 158.72c-19.337-0.18926-38.911-0.09248-58.469 0.25-78.231 1.3699-156.08 6.9171-218.19 16.406-31.054 4.7446-58.113 10.393-79.969 17.438-20.77 5.389-38.858 13.667-51.344 30.969-25.082 34.756-48.418 91.014-66.375 147.09s-30.344 110.6-21.406 152.31c4.7245 22.048 19.006 38.785 34.938 48.5s33.162 14.123 49.25 17.656 31.297 6.119 42.188 9.4688 15.639 7.0944 16.812 9.0312c0.0921 0.14691 0.18585 0.29273 0.28125 0.4375 8.2608 12.981 17.316 43.925 23.875 75.188s11.379 62.63 18.062 84.688c5.0785 16.759 16.867 22.092 27.906 27.25s23.965 9.1312 38.812 12.812c29.696 7.3626 66.874 13.14 104.5 17.906s75.592 8.4364 105.94 11.125 54.287 4.5845 59.312 5.1875h0.09375c14.448 1.6671 24.619-6.4794 30.844-13.219s10.775-14.269 15.344-22.75c9.1376-16.961 17.669-37.883 26.406-58.625s17.666-41.256 25.781-55.438c4.0575-7.0908 7.9785-12.546 10.562-15.25 1.1136-1.1653 1.5947-1.405 1.7812-1.5312 19.753-1.832 54.967-5.7195 89.656-11.406 17.827-2.9224 35.305-6.305 50.5-10.219s27.425-7.1917 38.969-15.438c7.9698-5.6928 9.9387-11.14 12.062-16.219s3.5929-10.302 4.9375-16.188c2.6892-11.772 4.6708-26.122 6.2188-42.844 3.096-33.444 4.2668-76.114 3.0312-120.59s-4.844-90.625-11.688-130.91c-6.6263-39.004-15.051-72.037-31.969-95.844-0.46314-0.80115-0.97449-1.5734-1.5312-2.3125l-0.0625-0.09375-0.125-0.15625c-0.00488-0.00639 5e-3 -0.02486 0-0.03125-0.64209-0.83916-1.3418-1.6327-2.0938-2.375-12.617-14.8-30.051-21.223-51.531-27.531-22.659-6.6541-50.381-11.623-81.969-15.438-47.381-5.722-103.33-8.7447-161.34-9.3125zm-0.4375 45.688c56.76 0.57095 111.31 3.5029 156.31 8.9375 30.001 3.6231 55.814 8.4228 74.594 13.938 18.588 5.4584 29.558 13.197 30.156 13.844 8.1876 10.906 18.658 41.199 24.969 78.344 6.3198 37.199 9.9036 81.653 11.094 124.5s-0.01367 84.215-2.875 115.12c-1.4307 15.455-3.3064 28.367-5.25 36.875-0.74304 3.2526-0.70984 5.6763-1.9688 6.6875-2.6377 2.1188-10.485 4.4487-20.875 7.125-13.058 3.3635-29.51 6.5898-46.5 9.375-33.979 5.5704-70.266 9.5242-88.562 11.188-12.857 1.1688-21.76 8.1974-28.5 15.25s-12.091 15.163-17.219 24.125c-10.256 17.924-19.374 39.482-28.188 60.406s-17.326 41.256-24.562 54.688c-2.9676 5.5084-5.5882 9.3208-7.4062 11.656-10.56-1.0778-27.204-2.3189-53.938-4.6875-30.049-2.6623-67.503-6.2863-104.22-10.938s-72.833-10.419-99.25-16.969c-13.209-3.2749-24.042-6.8412-30.469-9.8438-2.6591-1.2423-3.9044-2.4002-4.5312-3-4.5122-16.605-9.694-46.437-16.094-76.938-6.8535-32.663-14.32-65.655-30.031-90.344-10.241-16.898-26.783-23.846-42.219-28.594s-31.334-7.2332-45.781-10.406-27.17-7.1162-35.281-12.062-11.938-9.1476-14.062-19.062c-4.7607-22.216 3.3907-76.162 20.25-128.81s41.305-106.36 60.875-135.72c-0.75742 1.107 9.2591-6.9835 27.344-12.812s43.308-11.269 72.844-15.781c59.071-9.025 135.54-14.534 212.12-15.875 19.147-0.3353 38.299-0.40907 57.219-0.21875z"/>
  <path d="m507.75 316.41-12.425 100.22 125.07-24.021-1.6566-72.891-110.99-3.3132z" fill-rule="evenodd"/>
  <path d="m912.79 309.79-36.445 85.315 105.19 42.244 32.304-79.517-101.05-48.042z" fill-rule="evenodd"/>
  <path d="m908.5 302.97c-2.3693 0.08063-4.6079 0.27127-6.7812 0.5625s-4.2642 0.64462-6.6875 1.5-5.6682 1.9042-8.9062 6.4375c-2.7532 3.8545-5.4039 8.7511-9.0312 16.062s-7.6717 16.334-11.062 25.812-6.2039 19.304-6.9375 29.094 0.47577 21.662 10.312 29.531c10.615 8.4918 29.824 19.762 51.469 28.844s44.475 17.186 65.844 10.062c11.841-3.9469 19.415-13.374 24.469-23.281s8.027-21.053 9.9063-32.25 2.5803-22.428 2.3437-32.344-0.91717-17.98-4-25.688l-0.65631-1.375c-6.4388-12.162-16.823-15.541-28.25-19.656s-24.746-7.1942-37.906-9.4375-26.044-3.6007-36.625-3.875c-2.6453-0.06857-5.1307-0.08063-7.5 0zm6.7812 28.531c8.6821 0.2251 20.609 1.4313 32.562 3.4688s24.054 4.9542 33.031 8.1875c6.6419 2.392 11.084 5.9024 12.438 6.5938 0.54273 2.3433 1.4363 7.338 1.5938 13.938 0.19153 8.0273-0.39215 17.698-1.9375 26.906s-4.139 17.993-7.2188 24.031-6.205 8.5683-8.0625 9.1875c-6.0275 2.0092-26.585-1.2714-45.75-9.3125-18.802-7.889-37.311-19.097-44.156-24.438 0.17407-0.01822-0.52466-1.4179-0.21875-5.5 0.4079-5.4428 2.4562-13.522 5.3438-21.594s6.5282-16.256 9.75-22.75c2.2442-4.5234 3.4279-6.3788 4.6562-8.4688 1.9988-0.1716 4.4322-0.34168 7.9688-0.25z"/>
  <path d="m558.75 644.84c-4.7044-0.03979-8.7296 0.08942-12.438 0.53125s-6.8568-0.59888-13.188 5.1562c-5.3108 4.717-6.3439 12.622-2.4237 18.545s11.6 8.062 18.017 5.0172c0.80041-0.37628 1.5642-0.82611 2.2812-1.3438-0.40057 0.32556-0.93433 0.76977-1.2188 0.96875 1.6889-0.19653 4.7725-0.34589 8.7188-0.3125 7.9772 0.0675 19.472 0.76031 33.031 2.0312 27.12 2.5419 62.685 7.2628 98.312 13s71.392 12.537 98.844 19.125c13.726 3.2938 25.404 6.5399 33.625 9.4375 4.1105 1.4488 7.3801 2.8278 9.3438 3.8438s2.4948 2.176 0.9375 0.0625c2.9357 4.3274 8.0031 6.7025 13.207 6.1904s9.7112-3.8297 11.747-8.6464 1.274-10.361-1.9854-14.45c-3.555-4.8246-7.0178-6.5367-10.812-8.5s-8.034-3.678-12.938-5.4062c-9.8071-3.4566-22.174-6.882-36.469-10.312-28.59-6.8609-64.823-13.679-100.97-19.5s-72.121-10.619-100.19-13.25c-14.033-1.3153-26.029-2.1078-35.438-2.1875z"/>
  <path d="m601.81 605.56c-4.7104 0.11462-9.0607 2.547-11.625 6.5-2.169 3.2535-2.6494 4.9946-3.75 7.8125s-2.2642 6.18-3.5312 10c-2.5342 7.64-5.3928 17.117-8.0312 26.938s-5.0759 19.951-6.75 28.969-3.0377 15.986-1.875 24.125c0.63525 5.1215 3.9861 9.501 8.7633 11.453s10.236 1.1733 14.277-2.0373 6.0326-8.3525 5.21-13.447c0.02118 0.14819 0.22241-7.0149 1.6875-14.906s3.7516-17.45 6.25-26.75 5.214-18.389 7.5312-25.375c1.1586-3.4929 2.2369-6.4487 3.0625-8.5625s1.9337-3.9162 0.90625-2.375c3.0356-4.421 3.3364-10.171 0.77856-14.884s-7.5424-7.5952-12.904-7.4595z"/>
  <path d="m711.03 622.69c-5.205 0.26221-9.853 3.341-12.125 8.0312-2.205 4.4099-9.5006 20.443-16.719 39.594-3.6091 9.5751-7.0029 19.503-9.25 28.531s-5.3456 15.914-0.6875 27.094c1.7868 4.9515 6.1544 8.5173 11.363 9.2772s10.413-1.4096 13.54-5.6444c4.3462-10.382 1.4913-12.591 3.4716-23.852 1.7839-7.1674 4.8672-16.369 8.25-25.344 6.7655-17.949 15.484-36.719 15.562-36.875 2.3505-4.5401 2.0926-9.9907-0.6759-14.289s-7.6246-6.7866-12.73-6.5239z"/>
  <path d="m819.72 644.5c-0.80951 0.03565-1.6145 0.1402-2.4062 0.3125-6.523 1.3046-7.6542 3.8108-9.0312 5.3125s-2.2998 2.8107-3.2188 4.2188c-1.8378 2.8162-3.54 5.9999-5.375 9.7188-3.67 7.4376-7.6851 16.88-11.281 26.844s-6.761 20.341-8.625 29.844-4.718 17.474 1.75 28.562c2.5558 4.429 7.286 7.1519 12.399 7.1378s9.8286-2.7631 12.36-7.2061c3.0786-11.407 0.1441-11.358 1.4907-22.994 1.4179-7.2282 4.2157-16.643 7.4688-25.656s6.9948-17.753 10.031-23.906c1.4601-2.9591 2.7332-5.2523 3.5312-6.5 5.0021-3.7415 6.9895-10.301 4.9049-16.19s-7.7566-9.7368-13.999-9.4977zm8.6875 26c-0.46259 0.48877-1.2167 0.94666-2.7812 1.5 0.97974-0.39551 1.9125-0.89856 2.7812-1.5z"/>
  <path d="m556.59 293.66c-11.513 0.07477-22.759 0.77316-32.438 2.125s-16.954 1.8644-25.219 7.875c-5.2187 3.7954-7.0965 7.6667-9.1875 11.875s-3.8292 8.8818-5.4375 14.094c-3.2165 10.424-5.7728 22.85-7.1562 35.531s-1.6766 25.492 0.375 37.125 6.597 24.323 19.625 29.906c10.39 4.4528 21.004 4.0489 32.531 2.7812s23.852-3.9845 35.875-7.25c24.046-6.5311 46.178-14.987 56.25-19.688 10.762-5.0221 14.547-14.608 16.969-23.656s3.1433-18.996 2.6562-29.062-2.1687-20.131-5.5-29.281-8.0985-18.162-18.062-23.438c-8.169-4.3247-17.078-5.8602-27.562-7.1562s-22.205-1.856-33.719-1.7812zm0.1875 28.531c10.461-0.06793 21.181 0.46847 30.031 1.5625s16.185 3.2504 17.719 4.0625c-0.26105-0.13818 2.5429 2.4217 4.5625 7.9688s3.4747 13.279 3.8438 20.906-0.35962 15.235-1.7188 20.312c-1.0194 3.8082-2.584 5.4114-2.375 5.5312-7.5573 3.4487-29.061 11.765-50.75 17.656-11.093 3.0128-22.297 5.4221-31.531 6.4375s-16.591 0.0278-18.188-0.65625c1.042 0.44659-1.4172-1.276-2.7188-8.6562s-1.31-18.2-0.125-29.062 3.5-21.883 6.0625-30.188c1.2812-4.1521 2.6259-7.6444 3.7188-9.8438 0.32336-0.65082 0.56653-0.86957 0.84375-1.25 1.6844-0.45782 6.3486-2.1569 11.938-2.9375 7.9438-1.1096 18.227-1.7758 28.688-1.8438z"/>
  <path d="m730.95 453.02-55.642 70.284 91.955 6.4427-36.313-76.727z" fill-rule="evenodd"/>
  <path d="m731.88 440.03c-10.173 0.11319-16.075 5.9306-22.531 11.406-7.3784 6.2578-14.616 14.278-21.188 22.938s-12.403 17.866-16.531 26.75-8.476 16.986-4.2188 28.906c0.04022 0.11511 0.08185 0.22974 0.125 0.34375 4.3797 11.387 13.536 14.523 21.812 17.125s17.506 3.9076 26.938 4.5312 18.96 0.47791 27.5-0.40625 15.573-1.7304 23-6.0625c6.2445-3.3624 9.0272-9.0874 10.406-14s1.5104-9.5576 1.25-14.312c-0.52075-9.5098-2.9433-19.627-6.3125-29.656s-7.6686-19.77-12.719-27.969-9.2872-16.383-21.938-19.094l-0.96875-0.1875c-1.6412-0.23447-3.1717-0.32867-4.625-0.3125zm-0.03125 30.531c1.0163 1.0082 2.1574 2.2575 3.25 4.0312 3.4756 5.6425 7.2335 13.859 10 22.094s4.5441 16.652 4.8438 22.125c0.08191 1.4958-0.04645 1.8571-0.125 2.75-2.1275 0.56732-5.1502 1.2922-8.9688 1.6875-6.621 0.68549-14.854 0.83044-22.688 0.3125s-15.364-1.7764-20.25-3.3125c-0.99683-0.31335-1.6993-0.66461-2.3438-1 0.32391-1.5455 0.77228-3.6171 1.9375-6.125 2.8997-6.2409 7.8492-14.178 13.406-21.5s11.804-14.136 16.875-18.438c1.4967-1.2694 2.8679-2.0284 4.0625-2.625z"/>
  <path d="m935.4 744.42c-2.283 9.1322 127.85 79.907 133.56 99.313 5.7078 20.547-27.396 87.897 38.812 75.341 66.208-13.698 6.8492-42.236 60.501-51.369s31.963-71.916-15.981-67.35c-46.802 3.4246-121-117.58-132.42-119.86s-46.803 3.4246-51.369 7.9907c-9.1322 11.415-27.397 35.387-33.104 55.935"/>
  <path d="m450.25 626.84c2.283 3.4246 11.415 34.246 9.1322 42.236-2.2831 9.1322-107.3 87.897-107.3 111.87 0 35.387-59.359 89.039-77.624 17.123-42.236 6.8492-47.313-6.1584-47.944-12.557-7.3598-74.65 52.51-50.227 78.765-67.35 23.972-19.406 107.3-103.88 114.15-109.59 5.7076-4.5661 28.538 14.84 30.821 18.264"/>
  <path d="m1049.6 167.95c-9.1322-2.283 116.44-65.067 123.28-84.473s-23.972-89.039 42.236-71.916c65.067 17.123 4.5662 41.095 58.218 53.652 52.51 11.415 27.397 74.199-19.406 67.35-47.944-6.8492-114.15 107.3-118.72 95.888-5.7075-13.698-17.123-31.963-30.821-43.378-11.415-9.1322-38.812-12.557-54.793-17.123"/>
  <path d="m408.02 193.06c12.557-7.9907 34.246-12.557 51.369-17.123 15.981-4.5661-123.28-89.039-124.43-113.01-1.1415-55.935-59.359-89.039-77.624-17.123-42.236-6.8492-61.012 23.281-61.642 29.68-7.3598 74.65 67.35 33.104 92.464 50.227 23.972 19.406 83.331 121 85.614 113.01 7.9907-22.83 22.831-38.812 34.246-45.661"/>
 </g>
</svg>
